<svg xmlns="http://www.w3.org/2000/svg" xmlns:xlink="http://www.w3.org/1999/xlink" width="1080" viewBox="0 0 810 299.999988" height="400" preserveAspectRatio="xMidYMid meet"><defs><clipPath id="f62dc0d7fe"><path d="M 308.878906 208.078125 L 627.785156 208.078125 L 627.785156 211.207031 L 308.878906 211.207031 Z M 308.878906 208.078125 "></path></clipPath><clipPath id="a2f879effe"><path d="M 308.878906 208.078125 L 627.78125 208.800781 L 627.78125 211.199219 L 308.878906 210.480469 Z M 308.878906 208.078125 "></path></clipPath></defs><g id="6e9e8f40fe"><g clip-rule="nonzero" clip-path="url(#f62dc0d7fe)"><g clip-rule="nonzero" clip-path="url(#a2f879effe)"><path style=" stroke:none;fill-rule:nonzero;fill:#f37021;fill-opacity:1;" d="M 308.878906 208.078125 L 627.796875 208.078125 L 627.796875 211.195312 L 308.878906 211.195312 Z M 308.878906 208.078125 "></path></g></g><g style="fill:#f37021;fill-opacity:1;"><g transform="translate(169.440002, 150.575089)"><path style="stroke:none" d="M 227.78125 1.71875 C 227.90625 1.78125 228.035156 1.894531 228.171875 2.0625 C 228.304688 2.226562 228.375 2.414062 228.375 2.625 C 228.375 2.957031 228.273438 3.222656 228.078125 3.421875 C 227.878906 3.617188 227.644531 3.71875 227.375 3.71875 L 226.46875 3.625 C 226.351562 3.6875 226.265625 3.71875 226.203125 3.71875 C 209.421875 2.78125 192.878906 2.210938 176.578125 2.015625 C 160.285156 1.816406 143.859375 1.75 127.296875 1.8125 C 124.578125 1.8125 121.882812 1.8125 119.21875 1.8125 C 117.5625 1.8125 116.21875 2.128906 115.1875 2.765625 C 114.15625 3.398438 113.28125 4.519531 112.5625 6.125 C 108.289062 15.820312 103.9375 25.492188 99.5 35.140625 C 97.082031 40.398438 94.675781 45.660156 92.28125 50.921875 C 90.5625 54.765625 88.867188 58.648438 87.203125 62.578125 C 86.328125 64.515625 85.5 66.453125 84.71875 68.390625 C 84.65625 68.566406 84.546875 68.757812 84.390625 68.96875 C 84.273438 69.519531 84.050781 70.019531 83.71875 70.46875 C 83.164062 70.925781 82.457031 71.191406 81.59375 71.265625 C 80.738281 71.335938 79.992188 71.171875 79.359375 70.765625 C 78.722656 70.359375 78.539062 69.65625 78.8125 68.65625 C 79.414062 67 80.082031 65.382812 80.8125 63.8125 C 87.1875 49.238281 93.609375 34.664062 100.078125 20.09375 C 101.597656 16.707031 103.128906 13.273438 104.671875 9.796875 C 104.878906 9.285156 105.101562 8.726562 105.34375 8.125 C 105.882812 6.90625 106.429688 5.707031 106.984375 4.53125 C 107.492188 3.207031 107.160156 2.46875 105.984375 2.3125 C 97.515625 2.519531 89.09375 2.898438 80.71875 3.453125 C 76.332031 3.691406 71.90625 3.914062 67.4375 4.125 C 64.925781 4.1875 63.171875 5.378906 62.171875 7.703125 C 57.785156 17.171875 53.222656 26.5625 48.484375 35.875 C 45.703125 41.375 42.875 46.890625 40 52.421875 C 38.9375 54.421875 37.878906 56.414062 36.828125 58.40625 C 36.222656 59.675781 35.554688 60.875 34.828125 62 C 34.097656 62.988281 33.113281 63.597656 31.875 63.828125 C 30.632812 64.054688 29.550781 63.988281 28.625 63.625 C 27.707031 63.257812 27.28125 62.6875 27.34375 61.90625 C 27.675781 60.363281 28.144531 58.894531 28.75 57.5 C 33.53125 45.257812 38.742188 33.226562 44.390625 21.40625 C 46.390625 17.195312 48.390625 12.992188 50.390625 8.796875 C 50.929688 7.460938 50.566406 6.710938 49.296875 6.546875 C 48.023438 6.378906 46.164062 6.4375 43.71875 6.71875 C 43.65625 6.71875 43.550781 6.71875 43.40625 6.71875 C 39.132812 7.101562 34.753906 7.695312 30.265625 8.5 C 25.773438 9.300781 22.835938 9.898438 21.453125 10.296875 C 20.054688 10.628906 18.632812 10.796875 17.1875 10.796875 C 17.09375 10.878906 16.988281 10.921875 16.875 10.921875 C 16.75 10.921875 16.613281 10.878906 16.46875 10.796875 L 15.6875 10.921875 C 15.414062 10.921875 15.144531 10.816406 14.875 10.609375 C 14.601562 10.398438 14.46875 10.128906 14.46875 9.796875 C 14.53125 9.609375 14.644531 9.378906 14.8125 9.109375 C 14.976562 8.835938 15.164062 8.644531 15.375 8.53125 C 20.695312 6.65625 26.125 5.351562 31.65625 4.625 C 37.96875 3.6875 44.285156 2.882812 50.609375 2.21875 C 52.722656 2.15625 54.21875 1.1875 55.09375 -0.6875 C 56.9375 -4.457031 58.859375 -8.234375 60.859375 -12.015625 C 63.242188 -16.492188 65.675781 -20.953125 68.15625 -25.390625 C 69 -27.054688 69.863281 -28.722656 70.75 -30.390625 C 70.863281 -30.535156 70.96875 -30.695312 71.0625 -30.875 C 71.300781 -31.425781 71.585938 -31.925781 71.921875 -32.375 C 73.585938 -34.3125 74.984375 -36.410156 76.109375 -38.671875 C 77.242188 -40.941406 78.28125 -43.273438 79.21875 -45.671875 C 79.675781 -46.660156 80.117188 -47.65625 80.546875 -48.65625 C 88.585938 -66.800781 96.519531 -84.988281 104.34375 -103.21875 C 107.945312 -111.195312 110.710938 -119.421875 112.640625 -127.890625 C 113.429688 -130.941406 113.628906 -133.992188 113.234375 -137.046875 C 112.835938 -138.828125 111.671875 -139.753906 109.734375 -139.828125 C 107.804688 -139.910156 105.46875 -139.414062 102.71875 -138.34375 C 99.96875 -137.269531 97.109375 -135.96875 94.140625 -134.4375 C 91.179688 -132.90625 88.503906 -131.40625 86.109375 -129.9375 C 83.722656 -128.476562 81.957031 -127.382812 80.8125 -126.65625 C 80.476562 -126.476562 80.25 -126.34375 80.125 -126.25 C 48.925781 -106.84375 20.992188 -83.535156 -3.671875 -56.328125 C -6.390625 -53.328125 -8.992188 -50.234375 -11.484375 -47.046875 C -13.984375 -43.859375 -16.273438 -40.492188 -18.359375 -36.953125 C -19.929688 -34.296875 -21.1875 -31.515625 -22.125 -28.609375 C -23.28125 -24.140625 -22.957031 -20.722656 -21.15625 -18.359375 C -19.351562 -16.003906 -16.648438 -14.425781 -13.046875 -13.625 C -9.453125 -12.820312 -5.546875 -12.539062 -1.328125 -12.78125 C 2.878906 -13.03125 6.847656 -13.460938 10.578125 -14.078125 C 14.316406 -14.703125 17.210938 -15.316406 19.265625 -15.921875 C 21.722656 -16.523438 24.191406 -17.097656 26.671875 -17.640625 C 28.785156 -18.035156 29.375 -17.898438 28.4375 -17.234375 C 27.5 -16.566406 25.472656 -15.648438 22.359375 -14.484375 C 19.242188 -13.328125 15.5 -12.195312 11.125 -11.09375 C 6.757812 -9.988281 2.25 -9.203125 -2.40625 -8.734375 C -7.0625 -8.265625 -11.425781 -8.359375 -15.5 -9.015625 C -19.582031 -9.679688 -22.910156 -11.203125 -25.484375 -13.578125 C -28.054688 -15.953125 -29.375 -19.46875 -29.4375 -24.125 C -29.4375 -24.25 -29.4375 -24.367188 -29.4375 -24.484375 C -29.28125 -27.421875 -28.582031 -30.21875 -27.34375 -32.875 C -25.257812 -37.6875 -22.597656 -42.144531 -19.359375 -46.25 C -15.941406 -50.695312 -12.375 -54.992188 -8.65625 -59.140625 C 15.28125 -85.410156 42.242188 -108.082031 72.234375 -127.15625 C 75.773438 -129.425781 79.890625 -131.90625 84.578125 -134.59375 C 89.265625 -137.28125 94.085938 -139.539062 99.046875 -141.375 C 104.003906 -143.207031 108.644531 -144.03125 112.96875 -143.84375 C 117.738281 -143.570312 120.351562 -141.078125 120.8125 -136.359375 C 121.019531 -134.609375 121.007812 -132.898438 120.78125 -131.234375 C 120.5625 -129.578125 120.238281 -127.914062 119.8125 -126.25 C 119.75 -126.007812 119.6875 -125.753906 119.625 -125.484375 C 118.75 -121.492188 117.613281 -117.597656 116.21875 -113.796875 C 114.832031 -110.003906 113.335938 -106.25 111.734375 -102.53125 C 98.097656 -70.125 83.832031 -38.035156 68.9375 -6.265625 C 68.476562 -5.328125 68.050781 -4.359375 67.65625 -3.359375 C 66.988281 -1.816406 67.054688 -0.75 67.859375 -0.15625 C 68.660156 0.425781 70.003906 0.71875 71.890625 0.71875 C 73.785156 0.71875 76.003906 0.628906 78.546875 0.453125 C 78.941406 0.453125 79.332031 0.40625 79.71875 0.3125 C 81.382812 0.257812 83.078125 0.171875 84.796875 0.046875 C 92.453125 -0.554688 100.039062 -0.960938 107.5625 -1.171875 C 108.894531 -1.171875 109.816406 -1.734375 110.328125 -2.859375 C 110.929688 -4.066406 111.507812 -5.289062 112.0625 -6.53125 C 121.882812 -28.144531 132.097656 -49.5625 142.703125 -70.78125 C 153.316406 -92.007812 164.082031 -113.160156 175 -134.234375 C 175.125 -134.503906 175.257812 -134.773438 175.40625 -135.046875 C 175.800781 -136.046875 176.390625 -136.878906 177.171875 -137.546875 C 177.785156 -137.878906 178.488281 -138.046875 179.28125 -138.046875 C 180.082031 -138.046875 180.765625 -137.863281 181.328125 -137.5 C 181.890625 -137.132812 182.003906 -136.484375 181.671875 -135.546875 C 181.609375 -135.335938 181.515625 -135.113281 181.390625 -134.875 C 180.515625 -132.601562 179.550781 -130.363281 178.5 -128.15625 C 173.113281 -117.332031 167.6875 -106.523438 162.21875 -95.734375 C 160.3125 -91.890625 158.390625 -88.035156 156.453125 -84.171875 C 143.753906 -58.835938 131.3125 -33.363281 119.125 -7.75 C 118.914062 -7.269531 118.691406 -6.800781 118.453125 -6.34375 C 118.179688 -5.800781 117.9375 -5.273438 117.71875 -4.765625 C 117 -3.160156 116.957031 -2.125 117.59375 -1.65625 C 118.226562 -1.1875 119.238281 -1.023438 120.625 -1.171875 C 135.195312 -1.960938 150.046875 -2.140625 165.171875 -1.703125 C 180.304688 -1.265625 195.328125 -0.648438 210.234375 0.140625 C 214.804688 0.347656 219.359375 0.570312 223.890625 0.8125 C 224.097656 0.8125 224.265625 0.8125 224.390625 0.8125 C 224.992188 0.8125 225.585938 0.863281 226.171875 0.96875 C 226.765625 1.082031 227.300781 1.332031 227.78125 1.71875 Z M 227.78125 1.71875 "></path></g></g><g style="fill:#f37021;fill-opacity:1;"><g transform="translate(313.009329, 150.575089)"><path style="stroke:none" d="M 32.890625 -23.109375 C 33.609375 -22.703125 33.664062 -21.710938 33.0625 -20.140625 C 32.1875 -18.984375 31.25 -17.90625 30.25 -16.90625 C 29.25 -15.914062 28.160156 -15.023438 26.984375 -14.234375 C 26.890625 -14.234375 26.84375 -14.207031 26.84375 -14.15625 C 26.0625 -13.601562 25.234375 -13.132812 24.359375 -12.75 C 17.128906 -10.144531 13.4375 -11.671875 13.28125 -17.328125 C 10.351562 -14.785156 8.390625 -13.226562 7.390625 -12.65625 C 5.003906 -11.226562 2.421875 -10.59375 -0.359375 -10.75 C -2.421875 -10.863281 -3.820312 -11.488281 -4.5625 -12.625 C -5.300781 -13.757812 -5.234375 -15.296875 -4.359375 -17.234375 C -3.023438 -20.285156 -1.132812 -23.003906 1.3125 -25.390625 C 4.1875 -28.054688 7.378906 -30.191406 10.890625 -31.796875 C 12.765625 -32.734375 14.726562 -33.09375 16.78125 -32.875 C 18.832031 -32.757812 20.070312 -31.597656 20.5 -29.390625 C 20.675781 -28.722656 20.507812 -28.132812 20 -27.625 C 19.332031 -27.007812 18.5625 -26.867188 17.6875 -27.203125 C 17.625 -27.203125 17.539062 -27.21875 17.4375 -27.25 C 17.332031 -27.28125 17.25 -27.328125 17.1875 -27.390625 C 16.3125 -28.597656 15.425781 -29.101562 14.53125 -28.90625 C 13.644531 -28.707031 12.703125 -28.304688 11.703125 -27.703125 C 7.046875 -24.984375 3.582031 -21.191406 1.3125 -16.328125 C 1.195312 -16.117188 1.125 -15.882812 1.09375 -15.625 C 1.0625 -15.363281 1.132812 -15.160156 1.3125 -15.015625 C 1.851562 -14.828125 2.457031 -14.863281 3.125 -15.125 C 3.789062 -15.382812 4.457031 -15.757812 5.125 -16.25 C 5.789062 -16.75 6.347656 -17.164062 6.796875 -17.5 C 6.859375 -17.59375 6.890625 -17.640625 6.890625 -17.640625 C 9.097656 -19.484375 11.257812 -21.375 13.375 -23.3125 C 14.3125 -24.3125 15.476562 -24.867188 16.875 -24.984375 C 18.863281 -24.984375 19.691406 -24.09375 19.359375 -22.3125 C 19.179688 -21.644531 18.988281 -20.976562 18.78125 -20.3125 C 17.988281 -17.445312 17.953125 -15.765625 18.671875 -15.265625 C 19.398438 -14.765625 20.515625 -14.765625 22.015625 -15.265625 C 23.515625 -15.765625 25.007812 -16.710938 26.5 -18.109375 C 28 -19.515625 29.257812 -20.800781 30.28125 -21.96875 C 31.3125 -23.132812 32.179688 -23.515625 32.890625 -23.109375 Z M 32.890625 -23.109375 "></path></g></g><g style="fill:#f37021;fill-opacity:1;"><g transform="translate(343.05556, 150.575089)"><path style="stroke:none" d="M 21.765625 -27.84375 C 21.492188 -25.757812 20.507812 -24.398438 18.8125 -23.765625 C 17.125 -23.128906 16.570312 -23.957031 17.15625 -26.25 C 17.75 -28.550781 16.710938 -29.132812 14.046875 -28 C 11.390625 -26.863281 9.203125 -25.4375 7.484375 -23.71875 C 4.816406 -21 2.457031 -18.066406 0.40625 -14.921875 C 0.195312 -14.648438 0.03125 -14.421875 -0.09375 -14.234375 C -0.695312 -13.359375 -1.300781 -12.53125 -1.90625 -11.75 C -2.300781 -11.195312 -2.757812 -10.851562 -3.28125 -10.71875 C -3.8125 -10.582031 -4.347656 -10.5625 -4.890625 -10.65625 C -5.410156 -10.71875 -5.804688 -10.914062 -6.078125 -11.25 C -6.347656 -11.582031 -6.378906 -11.972656 -6.171875 -12.421875 C -5.835938 -13.242188 -5.441406 -14.078125 -4.984375 -14.921875 C -2.265625 -19.972656 0.5 -25.035156 3.3125 -30.109375 C 3.375 -30.171875 3.40625 -30.234375 3.40625 -30.296875 C 3.789062 -31.078125 4.257812 -31.800781 4.8125 -32.46875 C 5.414062 -33.132812 6.109375 -33.40625 6.890625 -33.28125 C 7.679688 -33.164062 8.210938 -32.695312 8.484375 -31.875 C 8.816406 -30.820312 9.101562 -30.226562 9.34375 -30.09375 C 9.582031 -29.957031 10.125 -30.054688 10.96875 -30.390625 C 12.789062 -31.046875 14.5625 -31.507812 16.28125 -31.78125 C 18 -32.0625 19.410156 -31.992188 20.515625 -31.578125 C 21.617188 -31.171875 22.035156 -29.925781 21.765625 -27.84375 Z M 21.765625 -27.84375 "></path></g></g><g style="fill:#f37021;fill-opacity:1;"><g transform="translate(365.71486, 150.575089)"><path style="stroke:none" d="M 18.015625 -19.109375 C 16.398438 -17.191406 14.488281 -15.429688 12.28125 -13.828125 C 10.082031 -12.222656 7.59375 -11.140625 4.8125 -10.578125 C 2.03125 -10.023438 -0.128906 -10.234375 -1.671875 -11.203125 C -3.210938 -12.171875 -3.515625 -14.316406 -2.578125 -17.640625 C -1.367188 -21.085938 0.289062 -24.367188 2.40625 -27.484375 C 2.882812 -28.148438 3.578125 -28.617188 4.484375 -28.890625 C 5.148438 -29.035156 5.734375 -28.921875 6.234375 -28.546875 C 6.734375 -28.171875 6.921875 -27.695312 6.796875 -27.125 C 6.347656 -26.03125 5.847656 -24.9375 5.296875 -23.84375 C 4.753906 -22.757812 4.394531 -22.050781 4.21875 -21.71875 C 3.15625 -19.78125 2.414062 -17.753906 2 -15.640625 C 2 -14.429688 3.613281 -14.351562 6.84375 -15.40625 C 10.082031 -16.46875 13.226562 -18.410156 16.28125 -21.234375 C 19.332031 -24.066406 20.789062 -24.898438 20.65625 -23.734375 C 20.519531 -22.578125 19.640625 -21.035156 18.015625 -19.109375 Z M 10.109375 -34.28125 C 9.960938 -34.164062 9.65625 -34.023438 9.1875 -33.859375 C 8.71875 -33.691406 8.21875 -33.566406 7.6875 -33.484375 C 7.15625 -33.410156 6.738281 -33.492188 6.4375 -33.734375 C 6.132812 -33.984375 6.117188 -34.46875 6.390625 -35.1875 C 6.878906 -36.457031 7.382812 -37.566406 7.90625 -38.515625 C 8.4375 -39.472656 9.128906 -40.523438 9.984375 -41.671875 C 10.523438 -42.191406 11.113281 -42.472656 11.75 -42.515625 C 12.382812 -42.554688 12.910156 -42.390625 13.328125 -42.015625 C 13.753906 -41.640625 13.878906 -41.117188 13.703125 -40.453125 C 13.035156 -38.066406 11.835938 -36.007812 10.109375 -34.28125 Z M 10.109375 -34.28125 "></path></g></g><g style="fill:#f37021;fill-opacity:1;"><g transform="translate(383.471235, 150.575089)"><path style="stroke:none" d=""></path></g></g><g style="fill:#f37021;fill-opacity:1;"><g transform="translate(395.283734, 216.575084)"><path style="stroke:none" d=""></path></g></g><g style="fill:#f37021;fill-opacity:1;"><g transform="translate(414.995982, 153.744458)"><path style="stroke:none" d="M 51.5 -103.3125 L 53.359375 -101.78125 C 52.640625 -91.800781 52.203125 -83.929688 52.046875 -78.171875 C 51.890625 -72.421875 51.8125 -67.59375 51.8125 -63.6875 L 51.8125 -13.109375 C 51.8125 -10.535156 52.582031 -8.707031 54.125 -7.625 C 55.664062 -6.550781 57.875 -5.910156 60.75 -5.703125 L 70.15625 -5.25 L 70.15625 0.46875 C 68.3125 0.46875 65.691406 0.414062 62.296875 0.3125 C 58.898438 0.207031 55.351562 0.128906 51.65625 0.078125 C 47.957031 0.0234375 44.664062 0 41.78125 0 C 40.65625 0 38.804688 0.0234375 36.234375 0.078125 C 33.660156 0.128906 30.832031 0.179688 27.75 0.234375 C 24.664062 0.285156 21.660156 0.335938 18.734375 0.390625 C 15.804688 0.441406 13.414062 0.46875 11.5625 0.46875 L 11.5625 -5.25 L 22.359375 -5.703125 C 24.617188 -5.804688 26.695312 -6.320312 28.59375 -7.25 C 30.5 -8.175781 31.453125 -10.078125 31.453125 -12.953125 L 31.453125 -82.5 C 31.453125 -83.320312 31.398438 -84.296875 31.296875 -85.421875 C 31.203125 -86.554688 30.742188 -87.125 29.921875 -87.125 C 29.710938 -87.125 29.476562 -87.070312 29.21875 -86.96875 C 28.96875 -86.863281 28.84375 -86.8125 28.84375 -86.8125 L 7.5625 -76.953125 C 7.039062 -78.285156 6.546875 -79.773438 6.078125 -81.421875 C 5.617188 -83.066406 5.390625 -85.171875 5.390625 -87.734375 C 9.921875 -88.867188 14.960938 -90.332031 20.515625 -92.125 C 26.066406 -93.925781 31.566406 -95.828125 37.015625 -97.828125 C 42.460938 -99.835938 47.289062 -101.664062 51.5 -103.3125 Z M 51.5 -103.3125 "></path></g></g><g style="fill:#f37021;fill-opacity:1;"><g transform="translate(492.058384, 153.744458)"><path style="stroke:none" d="M 40.40625 -101.78125 C 46.976562 -101.78125 52.347656 -100.570312 56.515625 -98.15625 C 60.679688 -95.738281 63.894531 -92.367188 66.15625 -88.046875 C 68.414062 -83.734375 69.984375 -78.695312 70.859375 -72.9375 C 71.734375 -67.175781 72.171875 -61.007812 72.171875 -54.4375 C 72.171875 -46.726562 71.707031 -39.425781 70.78125 -32.53125 C 69.851562 -25.644531 68.15625 -19.554688 65.6875 -14.265625 C 63.21875 -8.972656 59.722656 -4.832031 55.203125 -1.84375 C 50.679688 1.132812 44.769531 2.625 37.46875 2.625 C 30.375 2.625 24.664062 1.238281 20.34375 -1.53125 C 16.03125 -4.3125 12.769531 -8.09375 10.5625 -12.875 C 8.351562 -17.65625 6.890625 -23.078125 6.171875 -29.140625 C 5.453125 -35.210938 5.09375 -41.535156 5.09375 -48.109375 C 5.09375 -58.492188 6.117188 -67.71875 8.171875 -75.78125 C 10.222656 -83.851562 13.816406 -90.203125 18.953125 -94.828125 C 24.097656 -99.460938 31.25 -101.78125 40.40625 -101.78125 Z M 23.59375 -59.515625 C 23.59375 -48.617188 23.925781 -39.648438 24.59375 -32.609375 C 25.257812 -25.566406 26.234375 -20.039062 27.515625 -16.03125 C 28.804688 -12.019531 30.453125 -9.191406 32.453125 -7.546875 C 34.460938 -5.910156 36.851562 -5.09375 39.625 -5.09375 C 43.945312 -5.09375 47.363281 -7.867188 49.875 -13.421875 C 52.394531 -18.972656 53.65625 -27.453125 53.65625 -38.859375 C 53.65625 -58.492188 52.445312 -72.601562 50.03125 -81.1875 C 47.625 -89.769531 43.59375 -94.0625 37.9375 -94.0625 C 34.332031 -94.0625 31.550781 -92.90625 29.59375 -90.59375 C 27.644531 -88.28125 26.234375 -85.347656 25.359375 -81.796875 C 24.492188 -78.253906 23.984375 -74.503906 23.828125 -70.546875 C 23.671875 -66.585938 23.59375 -62.910156 23.59375 -59.515625 Z M 23.59375 -59.515625 "></path></g></g><g style="fill:#f37021;fill-opacity:1;"><g transform="translate(569.120786, 153.744458)"><path style="stroke:none" d="M 37.78125 -101.78125 C 48.675781 -101.78125 57 -98.28125 62.75 -91.28125 C 68.507812 -84.289062 71.390625 -73.859375 71.390625 -59.984375 C 71.390625 -50.628906 69.976562 -42.097656 67.15625 -34.390625 C 64.332031 -26.679688 60.425781 -20.078125 55.4375 -14.578125 C 50.445312 -9.078125 44.582031 -4.832031 37.84375 -1.84375 C 31.113281 1.132812 23.894531 2.625 16.1875 2.625 L 10.328125 -1.84375 L 11.71875 -4.625 C 12.132812 -4.519531 12.703125 -4.414062 13.421875 -4.3125 C 14.140625 -4.207031 15.007812 -4.15625 16.03125 -4.15625 C 19.9375 -4.15625 23.765625 -4.925781 27.515625 -6.46875 C 31.273438 -8.019531 34.128906 -9.566406 36.078125 -11.109375 C 40.296875 -14.492188 43.664062 -19.191406 46.1875 -25.203125 C 48.707031 -31.222656 50.328125 -39.015625 51.046875 -48.578125 L 41.640625 -40.40625 C 39.890625 -38.863281 38.164062 -37.804688 36.46875 -37.234375 C 34.769531 -36.671875 32.429688 -36.390625 29.453125 -36.390625 C 21.128906 -36.390625 14.9375 -39.140625 10.875 -44.640625 C 6.8125 -50.140625 4.78125 -57.15625 4.78125 -65.6875 C 4.78125 -77 7.8125 -85.84375 13.875 -92.21875 C 19.9375 -98.59375 27.90625 -101.78125 37.78125 -101.78125 Z M 22.96875 -73.5625 C 22.96875 -69.238281 23.507812 -65.273438 24.59375 -61.671875 C 25.675781 -58.078125 27.375 -55.203125 29.6875 -53.046875 C 32 -50.890625 34.953125 -49.8125 38.546875 -49.8125 C 47.390625 -49.8125 51.8125 -55.820312 51.8125 -67.84375 C 51.8125 -72.164062 51.398438 -76.304688 50.578125 -80.265625 C 49.753906 -84.222656 48.285156 -87.457031 46.171875 -89.96875 C 44.066406 -92.488281 41.0625 -93.75 37.15625 -93.75 C 32.53125 -93.75 29.007812 -91.925781 26.59375 -88.28125 C 24.175781 -84.632812 22.96875 -79.726562 22.96875 -73.5625 Z M 22.96875 -73.5625 "></path></g></g><g style="fill:#f37021;fill-opacity:1;"><g transform="translate(646.183188, 153.744458)"><path style="stroke:none" d="M 40.40625 -101.78125 C 46.976562 -101.78125 52.347656 -100.570312 56.515625 -98.15625 C 60.679688 -95.738281 63.894531 -92.367188 66.15625 -88.046875 C 68.414062 -83.734375 69.984375 -78.695312 70.859375 -72.9375 C 71.734375 -67.175781 72.171875 -61.007812 72.171875 -54.4375 C 72.171875 -46.726562 71.707031 -39.425781 70.78125 -32.53125 C 69.851562 -25.644531 68.15625 -19.554688 65.6875 -14.265625 C 63.21875 -8.972656 59.722656 -4.832031 55.203125 -1.84375 C 50.679688 1.132812 44.769531 2.625 37.46875 2.625 C 30.375 2.625 24.664062 1.238281 20.34375 -1.53125 C 16.03125 -4.3125 12.769531 -8.09375 10.5625 -12.875 C 8.351562 -17.65625 6.890625 -23.078125 6.171875 -29.140625 C 5.453125 -35.210938 5.09375 -41.535156 5.09375 -48.109375 C 5.09375 -58.492188 6.117188 -67.71875 8.171875 -75.78125 C 10.222656 -83.851562 13.816406 -90.203125 18.953125 -94.828125 C 24.097656 -99.460938 31.25 -101.78125 40.40625 -101.78125 Z M 23.59375 -59.515625 C 23.59375 -48.617188 23.925781 -39.648438 24.59375 -32.609375 C 25.257812 -25.566406 26.234375 -20.039062 27.515625 -16.03125 C 28.804688 -12.019531 30.453125 -9.191406 32.453125 -7.546875 C 34.460938 -5.910156 36.851562 -5.09375 39.625 -5.09375 C 43.945312 -5.09375 47.363281 -7.867188 49.875 -13.421875 C 52.394531 -18.972656 53.65625 -27.453125 53.65625 -38.859375 C 53.65625 -58.492188 52.445312 -72.601562 50.03125 -81.1875 C 47.625 -89.769531 43.59375 -94.0625 37.9375 -94.0625 C 34.332031 -94.0625 31.550781 -92.90625 29.59375 -90.59375 C 27.644531 -88.28125 26.234375 -85.347656 25.359375 -81.796875 C 24.492188 -78.253906 23.984375 -74.503906 23.828125 -70.546875 C 23.671875 -66.585938 23.59375 -62.910156 23.59375 -59.515625 Z M 23.59375 -59.515625 "></path></g></g><g style="fill:#f37021;fill-opacity:1;"><g transform="translate(142.242017, 256.764089)"><path style="stroke:none" d="M 21.953125 0 L 16.015625 -8.34375 C 15.347656 -8.269531 14.65625 -8.234375 13.9375 -8.234375 L 6.96875 -8.234375 L 6.96875 0 L 4.234375 0 L 4.234375 -25.953125 L 13.9375 -25.953125 C 17.25 -25.953125 19.84375 -25.160156 21.71875 -23.578125 C 23.601562 -21.992188 24.546875 -19.820312 24.546875 -17.0625 C 24.546875 -15.03125 24.03125 -13.316406 23 -11.921875 C 21.976562 -10.523438 20.515625 -9.519531 18.609375 -8.90625 L 24.953125 0 Z M 13.875 -10.5625 C 16.4375 -10.5625 18.394531 -11.128906 19.75 -12.265625 C 21.113281 -13.410156 21.796875 -15.007812 21.796875 -17.0625 C 21.796875 -19.15625 21.113281 -20.765625 19.75 -21.890625 C 18.394531 -23.015625 16.4375 -23.578125 13.875 -23.578125 L 6.96875 -23.578125 L 6.96875 -10.5625 Z M 13.875 -10.5625 "></path></g></g><g style="fill:#f37021;fill-opacity:1;"><g transform="translate(169.967936, 256.764089)"><path style="stroke:none" d="M 20.65625 -8.9375 L 4.34375 -8.9375 C 4.488281 -6.90625 5.265625 -5.265625 6.671875 -4.015625 C 8.078125 -2.773438 9.859375 -2.15625 12.015625 -2.15625 C 13.222656 -2.15625 14.332031 -2.367188 15.34375 -2.796875 C 16.363281 -3.234375 17.242188 -3.867188 17.984375 -4.703125 L 19.46875 -3 C 18.601562 -1.96875 17.519531 -1.175781 16.21875 -0.625 C 14.925781 -0.0820312 13.5 0.1875 11.9375 0.1875 C 9.9375 0.1875 8.160156 -0.238281 6.609375 -1.09375 C 5.066406 -1.945312 3.863281 -3.125 3 -4.625 C 2.132812 -6.132812 1.703125 -7.84375 1.703125 -9.75 C 1.703125 -11.65625 2.113281 -13.359375 2.9375 -14.859375 C 3.769531 -16.367188 4.910156 -17.546875 6.359375 -18.390625 C 7.804688 -19.234375 9.429688 -19.65625 11.234375 -19.65625 C 13.035156 -19.65625 14.65625 -19.234375 16.09375 -18.390625 C 17.53125 -17.546875 18.65625 -16.375 19.46875 -14.875 C 20.28125 -13.382812 20.6875 -11.675781 20.6875 -9.75 Z M 11.234375 -17.390625 C 9.359375 -17.390625 7.78125 -16.789062 6.5 -15.59375 C 5.226562 -14.394531 4.507812 -12.832031 4.34375 -10.90625 L 18.171875 -10.90625 C 17.992188 -12.832031 17.269531 -14.394531 16 -15.59375 C 14.726562 -16.789062 13.140625 -17.390625 11.234375 -17.390625 Z M 11.234375 -17.390625 "></path></g></g><g style="fill:#f37021;fill-opacity:1;"><g transform="translate(193.282959, 256.764089)"><path style="stroke:none" d="M 8.90625 0.1875 C 7.320312 0.1875 5.804688 -0.0390625 4.359375 -0.5 C 2.910156 -0.957031 1.78125 -1.53125 0.96875 -2.21875 L 2.15625 -4.296875 C 2.96875 -3.660156 3.988281 -3.132812 5.21875 -2.71875 C 6.457031 -2.3125 7.742188 -2.109375 9.078125 -2.109375 C 10.859375 -2.109375 12.175781 -2.382812 13.03125 -2.9375 C 13.882812 -3.5 14.3125 -4.285156 14.3125 -5.296875 C 14.3125 -6.015625 14.078125 -6.578125 13.609375 -6.984375 C 13.140625 -7.390625 12.546875 -7.695312 11.828125 -7.90625 C 11.109375 -8.125 10.15625 -8.332031 8.96875 -8.53125 C 7.382812 -8.820312 6.109375 -9.125 5.140625 -9.4375 C 4.179688 -9.75 3.363281 -10.273438 2.6875 -11.015625 C 2.007812 -11.753906 1.671875 -12.78125 1.671875 -14.09375 C 1.671875 -15.71875 2.347656 -17.050781 3.703125 -18.09375 C 5.066406 -19.132812 6.957031 -19.65625 9.375 -19.65625 C 10.632812 -19.65625 11.894531 -19.488281 13.15625 -19.15625 C 14.414062 -18.820312 15.457031 -18.378906 16.28125 -17.828125 L 15.125 -15.71875 C 13.519531 -16.832031 11.601562 -17.390625 9.375 -17.390625 C 7.695312 -17.390625 6.429688 -17.09375 5.578125 -16.5 C 4.722656 -15.90625 4.296875 -15.125 4.296875 -14.15625 C 4.296875 -13.414062 4.535156 -12.820312 5.015625 -12.375 C 5.503906 -11.9375 6.101562 -11.613281 6.8125 -11.40625 C 7.53125 -11.195312 8.519531 -10.976562 9.78125 -10.75 C 11.34375 -10.457031 12.59375 -10.160156 13.53125 -9.859375 C 14.46875 -9.566406 15.269531 -9.0625 15.9375 -8.34375 C 16.601562 -7.625 16.9375 -6.632812 16.9375 -5.375 C 16.9375 -3.664062 16.226562 -2.3125 14.8125 -1.3125 C 13.394531 -0.3125 11.425781 0.1875 8.90625 0.1875 Z M 8.90625 0.1875 "></path></g></g><g style="fill:#f37021;fill-opacity:1;"><g transform="translate(212.335356, 256.764089)"><path style="stroke:none" d="M 13.9375 -1.1875 C 13.445312 -0.738281 12.835938 -0.394531 12.109375 -0.15625 C 11.378906 0.0703125 10.617188 0.1875 9.828125 0.1875 C 7.992188 0.1875 6.582031 -0.304688 5.59375 -1.296875 C 4.601562 -2.285156 4.109375 -3.679688 4.109375 -5.484375 L 4.109375 -17.28125 L 0.625 -17.28125 L 0.625 -19.5 L 4.109375 -19.5 L 4.109375 -23.765625 L 6.75 -23.765625 L 6.75 -19.5 L 12.6875 -19.5 L 12.6875 -17.28125 L 6.75 -17.28125 L 6.75 -5.640625 C 6.75 -4.472656 7.035156 -3.585938 7.609375 -2.984375 C 8.191406 -2.378906 9.03125 -2.078125 10.125 -2.078125 C 10.664062 -2.078125 11.1875 -2.160156 11.6875 -2.328125 C 12.195312 -2.503906 12.640625 -2.753906 13.015625 -3.078125 Z M 13.9375 -1.1875 "></path></g></g><g style="fill:#f37021;fill-opacity:1;"><g transform="translate(228.31125, 256.764089)"><path style="stroke:none" d="M 10.5 -19.65625 C 13.039062 -19.65625 14.988281 -19.015625 16.34375 -17.734375 C 17.707031 -16.460938 18.390625 -14.582031 18.390625 -12.09375 L 18.390625 0 L 15.875 0 L 15.875 -3.046875 C 15.28125 -2.023438 14.40625 -1.226562 13.25 -0.65625 C 12.101562 -0.09375 10.738281 0.1875 9.15625 0.1875 C 6.976562 0.1875 5.25 -0.328125 3.96875 -1.359375 C 2.6875 -2.398438 2.046875 -3.773438 2.046875 -5.484375 C 2.046875 -7.140625 2.644531 -8.472656 3.84375 -9.484375 C 5.039062 -10.503906 6.945312 -11.015625 9.5625 -11.015625 L 15.765625 -11.015625 L 15.765625 -12.203125 C 15.765625 -13.878906 15.289062 -15.15625 14.34375 -16.03125 C 13.40625 -16.914062 12.035156 -17.359375 10.234375 -17.359375 C 8.992188 -17.359375 7.804688 -17.148438 6.671875 -16.734375 C 5.535156 -16.328125 4.5625 -15.765625 3.75 -15.046875 L 2.5625 -17.015625 C 3.550781 -17.859375 4.734375 -18.507812 6.109375 -18.96875 C 7.492188 -19.425781 8.957031 -19.65625 10.5 -19.65625 Z M 9.5625 -1.890625 C 11.050781 -1.890625 12.328125 -2.226562 13.390625 -2.90625 C 14.453125 -3.59375 15.242188 -4.578125 15.765625 -5.859375 L 15.765625 -9.046875 L 9.640625 -9.046875 C 6.304688 -9.046875 4.640625 -7.882812 4.640625 -5.5625 C 4.640625 -4.425781 5.070312 -3.53125 5.9375 -2.875 C 6.800781 -2.21875 8.007812 -1.890625 9.5625 -1.890625 Z M 9.5625 -1.890625 "></path></g></g><g style="fill:#f37021;fill-opacity:1;"><g transform="translate(251.107352, 256.764089)"><path style="stroke:none" d="M 21.25 -19.5 L 21.25 0 L 18.71875 0 L 18.71875 -3.5625 C 18.03125 -2.375 17.078125 -1.453125 15.859375 -0.796875 C 14.648438 -0.140625 13.269531 0.1875 11.71875 0.1875 C 9.164062 0.1875 7.15625 -0.519531 5.6875 -1.9375 C 4.21875 -3.363281 3.484375 -5.445312 3.484375 -8.1875 L 3.484375 -19.5 L 6.125 -19.5 L 6.125 -8.453125 C 6.125 -6.398438 6.628906 -4.84375 7.640625 -3.78125 C 8.648438 -2.71875 10.09375 -2.1875 11.96875 -2.1875 C 14.019531 -2.1875 15.640625 -2.8125 16.828125 -4.0625 C 18.015625 -5.3125 18.609375 -7.046875 18.609375 -9.265625 L 18.609375 -19.5 Z M 21.25 -19.5 "></path></g></g><g style="fill:#f37021;fill-opacity:1;"><g transform="translate(276.979959, 256.764089)"><path style="stroke:none" d="M 6.1875 -15.6875 C 6.8125 -17 7.734375 -17.988281 8.953125 -18.65625 C 10.179688 -19.320312 11.695312 -19.65625 13.5 -19.65625 L 13.5 -17.09375 L 12.859375 -17.125 C 10.804688 -17.125 9.195312 -16.492188 8.03125 -15.234375 C 6.875 -13.972656 6.296875 -12.207031 6.296875 -9.9375 L 6.296875 0 L 3.671875 0 L 3.671875 -19.5 L 6.1875 -19.5 Z M 6.1875 -15.6875 "></path></g></g><g style="fill:#f37021;fill-opacity:1;"><g transform="translate(292.770515, 256.764089)"><path style="stroke:none" d="M 10.5 -19.65625 C 13.039062 -19.65625 14.988281 -19.015625 16.34375 -17.734375 C 17.707031 -16.460938 18.390625 -14.582031 18.390625 -12.09375 L 18.390625 0 L 15.875 0 L 15.875 -3.046875 C 15.28125 -2.023438 14.40625 -1.226562 13.25 -0.65625 C 12.101562 -0.09375 10.738281 0.1875 9.15625 0.1875 C 6.976562 0.1875 5.25 -0.328125 3.96875 -1.359375 C 2.6875 -2.398438 2.046875 -3.773438 2.046875 -5.484375 C 2.046875 -7.140625 2.644531 -8.472656 3.84375 -9.484375 C 5.039062 -10.503906 6.945312 -11.015625 9.5625 -11.015625 L 15.765625 -11.015625 L 15.765625 -12.203125 C 15.765625 -13.878906 15.289062 -15.15625 14.34375 -16.03125 C 13.40625 -16.914062 12.035156 -17.359375 10.234375 -17.359375 C 8.992188 -17.359375 7.804688 -17.148438 6.671875 -16.734375 C 5.535156 -16.328125 4.5625 -15.765625 3.75 -15.046875 L 2.5625 -17.015625 C 3.550781 -17.859375 4.734375 -18.507812 6.109375 -18.96875 C 7.492188 -19.425781 8.957031 -19.65625 10.5 -19.65625 Z M 9.5625 -1.890625 C 11.050781 -1.890625 12.328125 -2.226562 13.390625 -2.90625 C 14.453125 -3.59375 15.242188 -4.578125 15.765625 -5.859375 L 15.765625 -9.046875 L 9.640625 -9.046875 C 6.304688 -9.046875 4.640625 -7.882812 4.640625 -5.5625 C 4.640625 -4.425781 5.070312 -3.53125 5.9375 -2.875 C 6.800781 -2.21875 8.007812 -1.890625 9.5625 -1.890625 Z M 9.5625 -1.890625 "></path></g></g><g style="fill:#f37021;fill-opacity:1;"><g transform="translate(315.566618, 256.764089)"><path style="stroke:none" d="M 13.609375 -19.65625 C 16.054688 -19.65625 18 -18.941406 19.4375 -17.515625 C 20.882812 -16.097656 21.609375 -14.03125 21.609375 -11.3125 L 21.609375 0 L 18.984375 0 L 18.984375 -11.046875 C 18.984375 -13.078125 18.472656 -14.625 17.453125 -15.6875 C 16.441406 -16.75 15 -17.28125 13.125 -17.28125 C 11.019531 -17.28125 9.351562 -16.65625 8.125 -15.40625 C 6.90625 -14.15625 6.296875 -12.429688 6.296875 -10.234375 L 6.296875 0 L 3.671875 0 L 3.671875 -19.5 L 6.1875 -19.5 L 6.1875 -15.90625 C 6.90625 -17.09375 7.898438 -18.015625 9.171875 -18.671875 C 10.453125 -19.328125 11.929688 -19.65625 13.609375 -19.65625 Z M 13.609375 -19.65625 "></path></g></g><g style="fill:#f37021;fill-opacity:1;"><g transform="translate(341.587505, 256.764089)"><path style="stroke:none" d="M 13.9375 -1.1875 C 13.445312 -0.738281 12.835938 -0.394531 12.109375 -0.15625 C 11.378906 0.0703125 10.617188 0.1875 9.828125 0.1875 C 7.992188 0.1875 6.582031 -0.304688 5.59375 -1.296875 C 4.601562 -2.285156 4.109375 -3.679688 4.109375 -5.484375 L 4.109375 -17.28125 L 0.625 -17.28125 L 0.625 -19.5 L 4.109375 -19.5 L 4.109375 -23.765625 L 6.75 -23.765625 L 6.75 -19.5 L 12.6875 -19.5 L 12.6875 -17.28125 L 6.75 -17.28125 L 6.75 -5.640625 C 6.75 -4.472656 7.035156 -3.585938 7.609375 -2.984375 C 8.191406 -2.378906 9.03125 -2.078125 10.125 -2.078125 C 10.664062 -2.078125 11.1875 -2.160156 11.6875 -2.328125 C 12.195312 -2.503906 12.640625 -2.753906 13.015625 -3.078125 Z M 13.9375 -1.1875 "></path></g></g><g style="fill:#f37021;fill-opacity:1;"><g transform="translate(357.563387, 256.764089)"><path style="stroke:none" d=""></path></g></g><g style="fill:#f37021;fill-opacity:1;"><g transform="translate(368.201722, 256.764089)"><path style="stroke:none" d="M 13.71875 -19.65625 C 15.550781 -19.65625 17.207031 -19.238281 18.6875 -18.40625 C 20.164062 -17.582031 21.328125 -16.414062 22.171875 -14.90625 C 23.015625 -13.394531 23.4375 -11.675781 23.4375 -9.75 C 23.4375 -7.820312 23.015625 -6.101562 22.171875 -4.59375 C 21.328125 -3.082031 20.164062 -1.90625 18.6875 -1.0625 C 17.207031 -0.226562 15.550781 0.1875 13.71875 0.1875 C 12.082031 0.1875 10.613281 -0.15625 9.3125 -0.84375 C 8.019531 -1.539062 6.976562 -2.546875 6.1875 -3.859375 L 6.1875 0 L 3.671875 0 L 3.671875 -27.515625 L 6.296875 -27.515625 L 6.296875 -15.796875 C 7.117188 -17.054688 8.164062 -18.015625 9.4375 -18.671875 C 10.707031 -19.328125 12.132812 -19.65625 13.71875 -19.65625 Z M 13.53125 -2.15625 C 14.894531 -2.15625 16.128906 -2.46875 17.234375 -3.09375 C 18.347656 -3.726562 19.21875 -4.625 19.84375 -5.78125 C 20.476562 -6.945312 20.796875 -8.269531 20.796875 -9.75 C 20.796875 -11.226562 20.476562 -12.550781 19.84375 -13.71875 C 19.21875 -14.882812 18.347656 -15.78125 17.234375 -16.40625 C 16.128906 -17.039062 14.894531 -17.359375 13.53125 -17.359375 C 12.144531 -17.359375 10.898438 -17.039062 9.796875 -16.40625 C 8.703125 -15.78125 7.835938 -14.882812 7.203125 -13.71875 C 6.578125 -12.550781 6.265625 -11.226562 6.265625 -9.75 C 6.265625 -8.269531 6.578125 -6.945312 7.203125 -5.78125 C 7.835938 -4.625 8.703125 -3.726562 9.796875 -3.09375 C 10.898438 -2.46875 12.144531 -2.15625 13.53125 -2.15625 Z M 13.53125 -2.15625 "></path></g></g><g style="fill:#f37021;fill-opacity:1;"><g transform="translate(394.259665, 256.764089)"><path style="stroke:none" d="M 20.0625 -19.5 L 10.3125 2.328125 C 9.519531 4.160156 8.601562 5.457031 7.5625 6.21875 C 6.519531 6.988281 5.269531 7.375 3.8125 7.375 C 2.875 7.375 2 7.222656 1.1875 6.921875 C 0.375 6.628906 -0.328125 6.1875 -0.921875 5.59375 L 0.296875 3.640625 C 1.285156 4.617188 2.472656 5.109375 3.859375 5.109375 C 4.742188 5.109375 5.5 4.863281 6.125 4.375 C 6.757812 3.882812 7.347656 3.046875 7.890625 1.859375 L 8.75 -0.03125 L 0.03125 -19.5 L 2.78125 -19.5 L 10.125 -2.921875 L 17.46875 -19.5 Z M 20.0625 -19.5 "></path></g></g><g style="fill:#f37021;fill-opacity:1;"><g transform="translate(415.276555, 256.764089)"><path style="stroke:none" d=""></path></g></g><g style="fill:#f37021;fill-opacity:1;"><g transform="translate(425.91489, 256.764089)"><path style="stroke:none" d="M 12.265625 -12.203125 L 6.96875 -6.828125 L 6.96875 0 L 4.234375 0 L 4.234375 -25.953125 L 6.96875 -25.953125 L 6.96875 -10.265625 L 22.203125 -25.953125 L 25.359375 -25.953125 L 14.125 -14.203125 L 26.140625 0 L 22.875 0 Z M 12.265625 -12.203125 "></path></g></g><g style="fill:#f37021;fill-opacity:1;"><g transform="translate(453.196023, 256.764089)"><path style="stroke:none" d="M 21.25 -19.5 L 21.25 0 L 18.71875 0 L 18.71875 -3.5625 C 18.03125 -2.375 17.078125 -1.453125 15.859375 -0.796875 C 14.648438 -0.140625 13.269531 0.1875 11.71875 0.1875 C 9.164062 0.1875 7.15625 -0.519531 5.6875 -1.9375 C 4.21875 -3.363281 3.484375 -5.445312 3.484375 -8.1875 L 3.484375 -19.5 L 6.125 -19.5 L 6.125 -8.453125 C 6.125 -6.398438 6.628906 -4.84375 7.640625 -3.78125 C 8.648438 -2.71875 10.09375 -2.1875 11.96875 -2.1875 C 14.019531 -2.1875 15.640625 -2.8125 16.828125 -4.0625 C 18.015625 -5.3125 18.609375 -7.046875 18.609375 -9.265625 L 18.609375 -19.5 Z M 21.25 -19.5 "></path></g></g><g style="fill:#f37021;fill-opacity:1;"><g transform="translate(479.068618, 256.764089)"><path style="stroke:none" d="M 28 -19.65625 C 30.445312 -19.65625 32.367188 -18.945312 33.765625 -17.53125 C 35.160156 -16.125 35.859375 -14.050781 35.859375 -11.3125 L 35.859375 0 L 33.21875 0 L 33.21875 -11.046875 C 33.21875 -13.078125 32.726562 -14.625 31.75 -15.6875 C 30.78125 -16.75 29.40625 -17.28125 27.625 -17.28125 C 25.59375 -17.28125 23.992188 -16.65625 22.828125 -15.40625 C 21.671875 -14.15625 21.09375 -12.429688 21.09375 -10.234375 L 21.09375 0 L 18.46875 0 L 18.46875 -11.046875 C 18.46875 -13.078125 17.976562 -14.625 17 -15.6875 C 16.019531 -16.75 14.628906 -17.28125 12.828125 -17.28125 C 10.828125 -17.28125 9.238281 -16.65625 8.0625 -15.40625 C 6.882812 -14.15625 6.296875 -12.429688 6.296875 -10.234375 L 6.296875 0 L 3.671875 0 L 3.671875 -19.5 L 6.1875 -19.5 L 6.1875 -15.9375 C 6.882812 -17.125 7.847656 -18.039062 9.078125 -18.6875 C 10.316406 -19.332031 11.738281 -19.65625 13.34375 -19.65625 C 14.976562 -19.65625 16.394531 -19.304688 17.59375 -18.609375 C 18.789062 -17.921875 19.6875 -16.894531 20.28125 -15.53125 C 21 -16.820312 22.03125 -17.832031 23.375 -18.5625 C 24.726562 -19.289062 26.269531 -19.65625 28 -19.65625 Z M 28 -19.65625 "></path></g></g><g style="fill:#f37021;fill-opacity:1;"><g transform="translate(519.322979, 256.764089)"><path style="stroke:none" d="M 10.5 -19.65625 C 13.039062 -19.65625 14.988281 -19.015625 16.34375 -17.734375 C 17.707031 -16.460938 18.390625 -14.582031 18.390625 -12.09375 L 18.390625 0 L 15.875 0 L 15.875 -3.046875 C 15.28125 -2.023438 14.40625 -1.226562 13.25 -0.65625 C 12.101562 -0.09375 10.738281 0.1875 9.15625 0.1875 C 6.976562 0.1875 5.25 -0.328125 3.96875 -1.359375 C 2.6875 -2.398438 2.046875 -3.773438 2.046875 -5.484375 C 2.046875 -7.140625 2.644531 -8.472656 3.84375 -9.484375 C 5.039062 -10.503906 6.945312 -11.015625 9.5625 -11.015625 L 15.765625 -11.015625 L 15.765625 -12.203125 C 15.765625 -13.878906 15.289062 -15.15625 14.34375 -16.03125 C 13.40625 -16.914062 12.035156 -17.359375 10.234375 -17.359375 C 8.992188 -17.359375 7.804688 -17.148438 6.671875 -16.734375 C 5.535156 -16.328125 4.5625 -15.765625 3.75 -15.046875 L 2.5625 -17.015625 C 3.550781 -17.859375 4.734375 -18.507812 6.109375 -18.96875 C 7.492188 -19.425781 8.957031 -19.65625 10.5 -19.65625 Z M 9.5625 -1.890625 C 11.050781 -1.890625 12.328125 -2.226562 13.390625 -2.90625 C 14.453125 -3.59375 15.242188 -4.578125 15.765625 -5.859375 L 15.765625 -9.046875 L 9.640625 -9.046875 C 6.304688 -9.046875 4.640625 -7.882812 4.640625 -5.5625 C 4.640625 -4.425781 5.070312 -3.53125 5.9375 -2.875 C 6.800781 -2.21875 8.007812 -1.890625 9.5625 -1.890625 Z M 9.5625 -1.890625 "></path></g></g><g style="fill:#f37021;fill-opacity:1;"><g transform="translate(542.119058, 256.764089)"><path style="stroke:none" d="M 6.1875 -15.6875 C 6.8125 -17 7.734375 -17.988281 8.953125 -18.65625 C 10.179688 -19.320312 11.695312 -19.65625 13.5 -19.65625 L 13.5 -17.09375 L 12.859375 -17.125 C 10.804688 -17.125 9.195312 -16.492188 8.03125 -15.234375 C 6.875 -13.972656 6.296875 -12.207031 6.296875 -9.9375 L 6.296875 0 L 3.671875 0 L 3.671875 -19.5 L 6.1875 -19.5 Z M 6.1875 -15.6875 "></path></g></g><g style="fill:#f37021;fill-opacity:1;"><g transform="translate(557.909615, 256.764089)"><path style="stroke:none" d="M 3.96875 -27.703125 C 4.53125 -27.703125 5 -27.507812 5.375 -27.125 C 5.75 -26.738281 5.9375 -26.257812 5.9375 -25.6875 C 5.9375 -25.394531 5.890625 -25.082031 5.796875 -24.75 C 5.710938 -24.414062 5.597656 -24.023438 5.453125 -23.578125 L 3.859375 -18.46875 L 2.078125 -18.46875 L 3.375 -23.796875 C 2.957031 -23.921875 2.625 -24.148438 2.375 -24.484375 C 2.125 -24.816406 2 -25.21875 2 -25.6875 C 2 -26.28125 2.179688 -26.765625 2.546875 -27.140625 C 2.921875 -27.515625 3.394531 -27.703125 3.96875 -27.703125 Z M 3.96875 -27.703125 "></path></g></g><g style="fill:#f37021;fill-opacity:1;"><g transform="translate(566.694648, 256.764089)"><path style="stroke:none" d="M 8.90625 0.1875 C 7.320312 0.1875 5.804688 -0.0390625 4.359375 -0.5 C 2.910156 -0.957031 1.78125 -1.53125 0.96875 -2.21875 L 2.15625 -4.296875 C 2.96875 -3.660156 3.988281 -3.132812 5.21875 -2.71875 C 6.457031 -2.3125 7.742188 -2.109375 9.078125 -2.109375 C 10.859375 -2.109375 12.175781 -2.382812 13.03125 -2.9375 C 13.882812 -3.5 14.3125 -4.285156 14.3125 -5.296875 C 14.3125 -6.015625 14.078125 -6.578125 13.609375 -6.984375 C 13.140625 -7.390625 12.546875 -7.695312 11.828125 -7.90625 C 11.109375 -8.125 10.15625 -8.332031 8.96875 -8.53125 C 7.382812 -8.820312 6.109375 -9.125 5.140625 -9.4375 C 4.179688 -9.75 3.363281 -10.273438 2.6875 -11.015625 C 2.007812 -11.753906 1.671875 -12.78125 1.671875 -14.09375 C 1.671875 -15.71875 2.347656 -17.050781 3.703125 -18.09375 C 5.066406 -19.132812 6.957031 -19.65625 9.375 -19.65625 C 10.632812 -19.65625 11.894531 -19.488281 13.15625 -19.15625 C 14.414062 -18.820312 15.457031 -18.378906 16.28125 -17.828125 L 15.125 -15.71875 C 13.519531 -16.832031 11.601562 -17.390625 9.375 -17.390625 C 7.695312 -17.390625 6.429688 -17.09375 5.578125 -16.5 C 4.722656 -15.90625 4.296875 -15.125 4.296875 -14.15625 C 4.296875 -13.414062 4.535156 -12.820312 5.015625 -12.375 C 5.503906 -11.9375 6.101562 -11.613281 6.8125 -11.40625 C 7.53125 -11.195312 8.519531 -10.976562 9.78125 -10.75 C 11.34375 -10.457031 12.59375 -10.160156 13.53125 -9.859375 C 14.46875 -9.566406 15.269531 -9.0625 15.9375 -8.34375 C 16.601562 -7.625 16.9375 -6.632812 16.9375 -5.375 C 16.9375 -3.664062 16.226562 -2.3125 14.8125 -1.3125 C 13.394531 -0.3125 11.425781 0.1875 8.90625 0.1875 Z M 8.90625 0.1875 "></path></g></g><g style="fill:#f37021;fill-opacity:1;"><g transform="translate(585.747045, 256.764089)"><path style="stroke:none" d=""></path></g></g><g style="fill:#f37021;fill-opacity:1;"><g transform="translate(596.38538, 256.764089)"><path style="stroke:none" d="M 12.265625 -12.203125 L 6.96875 -6.828125 L 6.96875 0 L 4.234375 0 L 4.234375 -25.953125 L 6.96875 -25.953125 L 6.96875 -10.265625 L 22.203125 -25.953125 L 25.359375 -25.953125 L 14.125 -14.203125 L 26.140625 0 L 22.875 0 Z M 12.265625 -12.203125 "></path></g></g><g style="fill:#f37021;fill-opacity:1;"><g transform="translate(623.666537, 256.764089)"><path style="stroke:none" d="M 3.671875 -19.5 L 6.296875 -19.5 L 6.296875 0 L 3.671875 0 Z M 5 -23.765625 C 4.457031 -23.765625 4 -23.945312 3.625 -24.3125 C 3.257812 -24.6875 3.078125 -25.132812 3.078125 -25.65625 C 3.078125 -26.15625 3.257812 -26.585938 3.625 -26.953125 C 4 -27.328125 4.457031 -27.515625 5 -27.515625 C 5.539062 -27.515625 5.992188 -27.332031 6.359375 -26.96875 C 6.734375 -26.613281 6.921875 -26.1875 6.921875 -25.6875 C 6.921875 -25.144531 6.734375 -24.6875 6.359375 -24.3125 C 5.992188 -23.945312 5.539062 -23.765625 5 -23.765625 Z M 5 -23.765625 "></path></g></g><g style="fill:#f37021;fill-opacity:1;"><g transform="translate(634.564332, 256.764089)"><path style="stroke:none" d="M 13.9375 -1.1875 C 13.445312 -0.738281 12.835938 -0.394531 12.109375 -0.15625 C 11.378906 0.0703125 10.617188 0.1875 9.828125 0.1875 C 7.992188 0.1875 6.582031 -0.304688 5.59375 -1.296875 C 4.601562 -2.285156 4.109375 -3.679688 4.109375 -5.484375 L 4.109375 -17.28125 L 0.625 -17.28125 L 0.625 -19.5 L 4.109375 -19.5 L 4.109375 -23.765625 L 6.75 -23.765625 L 6.75 -19.5 L 12.6875 -19.5 L 12.6875 -17.28125 L 6.75 -17.28125 L 6.75 -5.640625 C 6.75 -4.472656 7.035156 -3.585938 7.609375 -2.984375 C 8.191406 -2.378906 9.03125 -2.078125 10.125 -2.078125 C 10.664062 -2.078125 11.1875 -2.160156 11.6875 -2.328125 C 12.195312 -2.503906 12.640625 -2.753906 13.015625 -3.078125 Z M 13.9375 -1.1875 "></path></g></g><g style="fill:#f37021;fill-opacity:1;"><g transform="translate(650.540191, 256.764089)"><path style="stroke:none" d="M 11.75 0.1875 C 9.820312 0.1875 8.097656 -0.226562 6.578125 -1.0625 C 5.054688 -1.90625 3.863281 -3.085938 3 -4.609375 C 2.132812 -6.128906 1.703125 -7.84375 1.703125 -9.75 C 1.703125 -11.65625 2.132812 -13.359375 3 -14.859375 C 3.863281 -16.367188 5.054688 -17.546875 6.578125 -18.390625 C 8.097656 -19.234375 9.820312 -19.65625 11.75 -19.65625 C 13.4375 -19.65625 14.941406 -19.328125 16.265625 -18.671875 C 17.585938 -18.015625 18.628906 -17.054688 19.390625 -15.796875 L 17.421875 -14.453125 C 16.785156 -15.421875 15.972656 -16.144531 14.984375 -16.625 C 13.992188 -17.113281 12.914062 -17.359375 11.75 -17.359375 C 10.34375 -17.359375 9.078125 -17.039062 7.953125 -16.40625 C 6.828125 -15.78125 5.945312 -14.882812 5.3125 -13.71875 C 4.6875 -12.550781 4.375 -11.226562 4.375 -9.75 C 4.375 -8.238281 4.6875 -6.910156 5.3125 -5.765625 C 5.945312 -4.617188 6.828125 -3.726562 7.953125 -3.09375 C 9.078125 -2.46875 10.34375 -2.15625 11.75 -2.15625 C 12.914062 -2.15625 13.992188 -2.390625 14.984375 -2.859375 C 15.972656 -3.328125 16.785156 -4.039062 17.421875 -5 L 19.390625 -3.671875 C 18.628906 -2.410156 17.578125 -1.453125 16.234375 -0.796875 C 14.898438 -0.140625 13.40625 0.1875 11.75 0.1875 Z M 11.75 0.1875 "></path></g></g><g style="fill:#f37021;fill-opacity:1;"><g transform="translate(672.335508, 256.764089)"><path style="stroke:none" d="M 13.609375 -19.65625 C 16.054688 -19.65625 18 -18.941406 19.4375 -17.515625 C 20.882812 -16.097656 21.609375 -14.03125 21.609375 -11.3125 L 21.609375 0 L 18.984375 0 L 18.984375 -11.046875 C 18.984375 -13.078125 18.472656 -14.625 17.453125 -15.6875 C 16.441406 -16.75 15 -17.28125 13.125 -17.28125 C 11.019531 -17.28125 9.351562 -16.65625 8.125 -15.40625 C 6.90625 -14.15625 6.296875 -12.429688 6.296875 -10.234375 L 6.296875 0 L 3.671875 0 L 3.671875 -27.515625 L 6.296875 -27.515625 L 6.296875 -16.09375 C 7.015625 -17.226562 8.003906 -18.101562 9.265625 -18.71875 C 10.523438 -19.34375 11.972656 -19.65625 13.609375 -19.65625 Z M 13.609375 -19.65625 "></path></g></g><g style="fill:#f37021;fill-opacity:1;"><g transform="translate(698.356395, 256.764089)"><path style="stroke:none" d="M 20.65625 -8.9375 L 4.34375 -8.9375 C 4.488281 -6.90625 5.265625 -5.265625 6.671875 -4.015625 C 8.078125 -2.773438 9.859375 -2.15625 12.015625 -2.15625 C 13.222656 -2.15625 14.332031 -2.367188 15.34375 -2.796875 C 16.363281 -3.234375 17.242188 -3.867188 17.984375 -4.703125 L 19.46875 -3 C 18.601562 -1.96875 17.519531 -1.175781 16.21875 -0.625 C 14.925781 -0.0820312 13.5 0.1875 11.9375 0.1875 C 9.9375 0.1875 8.160156 -0.238281 6.609375 -1.09375 C 5.066406 -1.945312 3.863281 -3.125 3 -4.625 C 2.132812 -6.132812 1.703125 -7.84375 1.703125 -9.75 C 1.703125 -11.65625 2.113281 -13.359375 2.9375 -14.859375 C 3.769531 -16.367188 4.910156 -17.546875 6.359375 -18.390625 C 7.804688 -19.234375 9.429688 -19.65625 11.234375 -19.65625 C 13.035156 -19.65625 14.65625 -19.234375 16.09375 -18.390625 C 17.53125 -17.546875 18.65625 -16.375 19.46875 -14.875 C 20.28125 -13.382812 20.6875 -11.675781 20.6875 -9.75 Z M 11.234375 -17.390625 C 9.359375 -17.390625 7.78125 -16.789062 6.5 -15.59375 C 5.226562 -14.394531 4.507812 -12.832031 4.34375 -10.90625 L 18.171875 -10.90625 C 17.992188 -12.832031 17.269531 -14.394531 16 -15.59375 C 14.726562 -16.789062 13.140625 -17.390625 11.234375 -17.390625 Z M 11.234375 -17.390625 "></path></g></g><g style="fill:#f37021;fill-opacity:1;"><g transform="translate(721.671442, 256.764089)"><path style="stroke:none" d="M 13.609375 -19.65625 C 16.054688 -19.65625 18 -18.941406 19.4375 -17.515625 C 20.882812 -16.097656 21.609375 -14.03125 21.609375 -11.3125 L 21.609375 0 L 18.984375 0 L 18.984375 -11.046875 C 18.984375 -13.078125 18.472656 -14.625 17.453125 -15.6875 C 16.441406 -16.75 15 -17.28125 13.125 -17.28125 C 11.019531 -17.28125 9.351562 -16.65625 8.125 -15.40625 C 6.90625 -14.15625 6.296875 -12.429688 6.296875 -10.234375 L 6.296875 0 L 3.671875 0 L 3.671875 -19.5 L 6.1875 -19.5 L 6.1875 -15.90625 C 6.90625 -17.09375 7.898438 -18.015625 9.171875 -18.671875 C 10.453125 -19.328125 11.929688 -19.65625 13.609375 -19.65625 Z M 13.609375 -19.65625 "></path></g></g><g style="fill:#f37021;fill-opacity:1;"><g transform="translate(308.879991, 200.879984)"><path style="stroke:none" d="M 20.1875 -16.796875 L 20.1875 0 L 18.484375 0 L 18.484375 -13.4375 L 11.875 -2.140625 L 11.046875 -2.140625 L 4.4375 -13.375 L 4.4375 0 L 2.734375 0 L 2.734375 -16.796875 L 4.203125 -16.796875 L 11.5 -4.34375 L 18.71875 -16.796875 Z M 20.1875 -16.796875 "></path></g></g><g style="fill:#f37021;fill-opacity:1;"><g transform="translate(332.47203, 200.879984)"><path style="stroke:none" d="M 7.53125 0.125 C 6.320312 0.125 5.226562 -0.148438 4.25 -0.703125 C 3.269531 -1.253906 2.5 -2.019531 1.9375 -3 C 1.382812 -3.976562 1.109375 -5.082031 1.109375 -6.3125 C 1.109375 -7.539062 1.382812 -8.644531 1.9375 -9.625 C 2.5 -10.601562 3.269531 -11.363281 4.25 -11.90625 C 5.226562 -12.445312 6.320312 -12.71875 7.53125 -12.71875 C 8.75 -12.71875 9.84375 -12.445312 10.8125 -11.90625 C 11.789062 -11.363281 12.554688 -10.601562 13.109375 -9.625 C 13.660156 -8.644531 13.9375 -7.539062 13.9375 -6.3125 C 13.9375 -5.082031 13.660156 -3.976562 13.109375 -3 C 12.554688 -2.019531 11.789062 -1.253906 10.8125 -0.703125 C 9.84375 -0.148438 8.75 0.125 7.53125 0.125 Z M 7.53125 -1.390625 C 8.425781 -1.390625 9.226562 -1.59375 9.9375 -2 C 10.65625 -2.40625 11.210938 -2.984375 11.609375 -3.734375 C 12.015625 -4.492188 12.21875 -5.351562 12.21875 -6.3125 C 12.21875 -7.269531 12.015625 -8.125 11.609375 -8.875 C 11.210938 -9.632812 10.65625 -10.21875 9.9375 -10.625 C 9.226562 -11.03125 8.425781 -11.234375 7.53125 -11.234375 C 6.632812 -11.234375 5.832031 -11.03125 5.125 -10.625 C 4.414062 -10.21875 3.851562 -9.632812 3.4375 -8.875 C 3.03125 -8.125 2.828125 -7.269531 2.828125 -6.3125 C 2.828125 -5.351562 3.03125 -4.492188 3.4375 -3.734375 C 3.851562 -2.984375 4.414062 -2.40625 5.125 -2 C 5.832031 -1.59375 6.632812 -1.390625 7.53125 -1.390625 Z M 7.53125 -1.390625 "></path></g></g><g style="fill:#f37021;fill-opacity:1;"><g transform="translate(348.192057, 200.879984)"><path style="stroke:none" d="M 13.890625 -17.8125 L 13.890625 0 L 12.265625 0 L 12.265625 -2.5 C 11.753906 -1.644531 11.078125 -0.992188 10.234375 -0.546875 C 9.390625 -0.0976562 8.441406 0.125 7.390625 0.125 C 6.203125 0.125 5.128906 -0.144531 4.171875 -0.6875 C 3.210938 -1.238281 2.460938 -2 1.921875 -2.96875 C 1.378906 -3.945312 1.109375 -5.0625 1.109375 -6.3125 C 1.109375 -7.5625 1.378906 -8.671875 1.921875 -9.640625 C 2.460938 -10.617188 3.210938 -11.375 4.171875 -11.90625 C 5.128906 -12.445312 6.203125 -12.71875 7.390625 -12.71875 C 8.410156 -12.71875 9.332031 -12.503906 10.15625 -12.078125 C 10.988281 -11.660156 11.664062 -11.039062 12.1875 -10.21875 L 12.1875 -17.8125 Z M 7.53125 -1.390625 C 8.414062 -1.390625 9.210938 -1.59375 9.921875 -2 C 10.628906 -2.40625 11.1875 -2.984375 11.59375 -3.734375 C 12.007812 -4.492188 12.21875 -5.351562 12.21875 -6.3125 C 12.21875 -7.269531 12.007812 -8.125 11.59375 -8.875 C 11.1875 -9.632812 10.628906 -10.21875 9.921875 -10.625 C 9.210938 -11.03125 8.414062 -11.234375 7.53125 -11.234375 C 6.632812 -11.234375 5.832031 -11.03125 5.125 -10.625 C 4.414062 -10.21875 3.851562 -9.632812 3.4375 -8.875 C 3.03125 -8.125 2.828125 -7.269531 2.828125 -6.3125 C 2.828125 -5.351562 3.03125 -4.492188 3.4375 -3.734375 C 3.851562 -2.984375 4.414062 -2.40625 5.125 -2 C 5.832031 -1.59375 6.632812 -1.390625 7.53125 -1.390625 Z M 7.53125 -1.390625 "></path></g></g><g style="fill:#f37021;fill-opacity:1;"><g transform="translate(365.136086, 200.879984)"><path style="stroke:none" d="M 13.375 -5.78125 L 2.8125 -5.78125 C 2.90625 -4.46875 3.40625 -3.40625 4.3125 -2.59375 C 5.226562 -1.789062 6.382812 -1.390625 7.78125 -1.390625 C 8.5625 -1.390625 9.28125 -1.53125 9.9375 -1.8125 C 10.59375 -2.09375 11.160156 -2.503906 11.640625 -3.046875 L 12.59375 -1.9375 C 12.039062 -1.269531 11.34375 -0.757812 10.5 -0.40625 C 9.65625 -0.0507812 8.734375 0.125 7.734375 0.125 C 6.429688 0.125 5.28125 -0.148438 4.28125 -0.703125 C 3.28125 -1.253906 2.5 -2.019531 1.9375 -3 C 1.382812 -3.976562 1.109375 -5.082031 1.109375 -6.3125 C 1.109375 -7.539062 1.375 -8.644531 1.90625 -9.625 C 2.445312 -10.601562 3.179688 -11.363281 4.109375 -11.90625 C 5.046875 -12.445312 6.097656 -12.71875 7.265625 -12.71875 C 8.441406 -12.71875 9.492188 -12.445312 10.421875 -11.90625 C 11.347656 -11.363281 12.070312 -10.609375 12.59375 -9.640625 C 13.125 -8.671875 13.390625 -7.5625 13.390625 -6.3125 Z M 7.265625 -11.25 C 6.054688 -11.25 5.035156 -10.859375 4.203125 -10.078125 C 3.378906 -9.304688 2.914062 -8.300781 2.8125 -7.0625 L 11.765625 -7.0625 C 11.648438 -8.300781 11.179688 -9.304688 10.359375 -10.078125 C 9.535156 -10.859375 8.503906 -11.25 7.265625 -11.25 Z M 7.265625 -11.25 "></path></g></g><g style="fill:#f37021;fill-opacity:1;"><g transform="translate(380.304107, 200.879984)"><path style="stroke:none" d="M 4.015625 -10.15625 C 4.410156 -11 5.003906 -11.632812 5.796875 -12.0625 C 6.585938 -12.5 7.566406 -12.71875 8.734375 -12.71875 L 8.734375 -11.0625 L 8.328125 -11.09375 C 7.003906 -11.09375 5.960938 -10.679688 5.203125 -9.859375 C 4.453125 -9.046875 4.078125 -7.90625 4.078125 -6.4375 L 4.078125 0 L 2.375 0 L 2.375 -12.625 L 4.015625 -12.625 Z M 4.015625 -10.15625 "></path></g></g><g style="fill:#f37021;fill-opacity:1;"><g transform="translate(390.600127, 200.879984)"><path style="stroke:none" d="M 8.8125 -12.71875 C 10.394531 -12.71875 11.648438 -12.253906 12.578125 -11.328125 C 13.515625 -10.410156 13.984375 -9.070312 13.984375 -7.3125 L 13.984375 0 L 12.28125 0 L 12.28125 -7.15625 C 12.28125 -8.46875 11.953125 -9.46875 11.296875 -10.15625 C 10.640625 -10.84375 9.707031 -11.1875 8.5 -11.1875 C 7.132812 -11.1875 6.054688 -10.78125 5.265625 -9.96875 C 4.472656 -9.164062 4.078125 -8.050781 4.078125 -6.625 L 4.078125 0 L 2.375 0 L 2.375 -12.625 L 4.015625 -12.625 L 4.015625 -10.296875 C 4.472656 -11.066406 5.113281 -11.660156 5.9375 -12.078125 C 6.757812 -12.503906 7.71875 -12.71875 8.8125 -12.71875 Z M 8.8125 -12.71875 "></path></g></g><g style="fill:#f37021;fill-opacity:1;"><g transform="translate(407.520158, 200.879984)"><path style="stroke:none" d=""></path></g></g><g style="fill:#f37021;fill-opacity:1;"><g transform="translate(414.480168, 200.879984)"><path style="stroke:none" d="M 2.734375 -16.796875 L 4.515625 -16.796875 L 4.515625 0 L 2.734375 0 Z M 2.734375 -16.796875 "></path></g></g><g style="fill:#f37021;fill-opacity:1;"><g transform="translate(422.400177, 200.879984)"><path style="stroke:none" d="M 8.8125 -12.71875 C 10.394531 -12.71875 11.648438 -12.253906 12.578125 -11.328125 C 13.515625 -10.410156 13.984375 -9.070312 13.984375 -7.3125 L 13.984375 0 L 12.28125 0 L 12.28125 -7.15625 C 12.28125 -8.46875 11.953125 -9.46875 11.296875 -10.15625 C 10.640625 -10.84375 9.707031 -11.1875 8.5 -11.1875 C 7.132812 -11.1875 6.054688 -10.78125 5.265625 -9.96875 C 4.472656 -9.164062 4.078125 -8.050781 4.078125 -6.625 L 4.078125 0 L 2.375 0 L 2.375 -12.625 L 4.015625 -12.625 L 4.015625 -10.296875 C 4.472656 -11.066406 5.113281 -11.660156 5.9375 -12.078125 C 6.757812 -12.503906 7.71875 -12.71875 8.8125 -12.71875 Z M 8.8125 -12.71875 "></path></g></g><g style="fill:#f37021;fill-opacity:1;"><g transform="translate(439.320208, 200.879984)"><path style="stroke:none" d="M 9.03125 -0.765625 C 8.707031 -0.484375 8.304688 -0.265625 7.828125 -0.109375 C 7.359375 0.046875 6.867188 0.125 6.359375 0.125 C 5.171875 0.125 4.253906 -0.191406 3.609375 -0.828125 C 2.972656 -1.472656 2.65625 -2.378906 2.65625 -3.546875 L 2.65625 -11.1875 L 0.40625 -11.1875 L 0.40625 -12.625 L 2.65625 -12.625 L 2.65625 -15.390625 L 4.375 -15.390625 L 4.375 -12.625 L 8.203125 -12.625 L 8.203125 -11.1875 L 4.375 -11.1875 L 4.375 -3.640625 C 4.375 -2.890625 4.5625 -2.316406 4.9375 -1.921875 C 5.3125 -1.535156 5.847656 -1.34375 6.546875 -1.34375 C 6.898438 -1.34375 7.238281 -1.398438 7.5625 -1.515625 C 7.894531 -1.628906 8.179688 -1.785156 8.421875 -1.984375 Z M 9.03125 -0.765625 "></path></g></g><g style="fill:#f37021;fill-opacity:1;"><g transform="translate(449.736219, 200.879984)"><path style="stroke:none" d="M 13.375 -5.78125 L 2.8125 -5.78125 C 2.90625 -4.46875 3.40625 -3.40625 4.3125 -2.59375 C 5.226562 -1.789062 6.382812 -1.390625 7.78125 -1.390625 C 8.5625 -1.390625 9.28125 -1.53125 9.9375 -1.8125 C 10.59375 -2.09375 11.160156 -2.503906 11.640625 -3.046875 L 12.59375 -1.9375 C 12.039062 -1.269531 11.34375 -0.757812 10.5 -0.40625 C 9.65625 -0.0507812 8.734375 0.125 7.734375 0.125 C 6.429688 0.125 5.28125 -0.148438 4.28125 -0.703125 C 3.28125 -1.253906 2.5 -2.019531 1.9375 -3 C 1.382812 -3.976562 1.109375 -5.082031 1.109375 -6.3125 C 1.109375 -7.539062 1.375 -8.644531 1.90625 -9.625 C 2.445312 -10.601562 3.179688 -11.363281 4.109375 -11.90625 C 5.046875 -12.445312 6.097656 -12.71875 7.265625 -12.71875 C 8.441406 -12.71875 9.492188 -12.445312 10.421875 -11.90625 C 11.347656 -11.363281 12.070312 -10.609375 12.59375 -9.640625 C 13.125 -8.671875 13.390625 -7.5625 13.390625 -6.3125 Z M 7.265625 -11.25 C 6.054688 -11.25 5.035156 -10.859375 4.203125 -10.078125 C 3.378906 -9.304688 2.914062 -8.300781 2.8125 -7.0625 L 11.765625 -7.0625 C 11.648438 -8.300781 11.179688 -9.304688 10.359375 -10.078125 C 9.535156 -10.859375 8.503906 -11.25 7.265625 -11.25 Z M 7.265625 -11.25 "></path></g></g><g style="fill:#f37021;fill-opacity:1;"><g transform="translate(464.90424, 200.879984)"><path style="stroke:none" d="M 4.015625 -10.15625 C 4.410156 -11 5.003906 -11.632812 5.796875 -12.0625 C 6.585938 -12.5 7.566406 -12.71875 8.734375 -12.71875 L 8.734375 -11.0625 L 8.328125 -11.09375 C 7.003906 -11.09375 5.960938 -10.679688 5.203125 -9.859375 C 4.453125 -9.046875 4.078125 -7.90625 4.078125 -6.4375 L 4.078125 0 L 2.375 0 L 2.375 -12.625 L 4.015625 -12.625 Z M 4.015625 -10.15625 "></path></g></g><g style="fill:#f37021;fill-opacity:1;"><g transform="translate(475.200259, 200.879984)"><path style="stroke:none" d="M 8.8125 -12.71875 C 10.394531 -12.71875 11.648438 -12.253906 12.578125 -11.328125 C 13.515625 -10.410156 13.984375 -9.070312 13.984375 -7.3125 L 13.984375 0 L 12.28125 0 L 12.28125 -7.15625 C 12.28125 -8.46875 11.953125 -9.46875 11.296875 -10.15625 C 10.640625 -10.84375 9.707031 -11.1875 8.5 -11.1875 C 7.132812 -11.1875 6.054688 -10.78125 5.265625 -9.96875 C 4.472656 -9.164062 4.078125 -8.050781 4.078125 -6.625 L 4.078125 0 L 2.375 0 L 2.375 -12.625 L 4.015625 -12.625 L 4.015625 -10.296875 C 4.472656 -11.066406 5.113281 -11.660156 5.9375 -12.078125 C 6.757812 -12.503906 7.71875 -12.71875 8.8125 -12.71875 Z M 8.8125 -12.71875 "></path></g></g><g style="fill:#f37021;fill-opacity:1;"><g transform="translate(492.12029, 200.879984)"><path style="stroke:none" d="M 6.796875 -12.71875 C 8.441406 -12.71875 9.703125 -12.304688 10.578125 -11.484375 C 11.460938 -10.660156 11.90625 -9.441406 11.90625 -7.828125 L 11.90625 0 L 10.265625 0 L 10.265625 -1.96875 C 9.890625 -1.3125 9.328125 -0.796875 8.578125 -0.421875 C 7.835938 -0.0546875 6.953125 0.125 5.921875 0.125 C 4.515625 0.125 3.394531 -0.207031 2.5625 -0.875 C 1.726562 -1.550781 1.3125 -2.441406 1.3125 -3.546875 C 1.3125 -4.617188 1.695312 -5.484375 2.46875 -6.140625 C 3.25 -6.796875 4.488281 -7.125 6.1875 -7.125 L 10.203125 -7.125 L 10.203125 -7.890625 C 10.203125 -8.984375 9.894531 -9.8125 9.28125 -10.375 C 8.675781 -10.945312 7.789062 -11.234375 6.625 -11.234375 C 5.820312 -11.234375 5.050781 -11.097656 4.3125 -10.828125 C 3.582031 -10.566406 2.953125 -10.207031 2.421875 -9.75 L 1.65625 -11.015625 C 2.289062 -11.554688 3.054688 -11.972656 3.953125 -12.265625 C 4.847656 -12.566406 5.796875 -12.71875 6.796875 -12.71875 Z M 6.1875 -1.21875 C 7.144531 -1.21875 7.96875 -1.4375 8.65625 -1.875 C 9.351562 -2.320312 9.867188 -2.960938 10.203125 -3.796875 L 10.203125 -5.859375 L 6.234375 -5.859375 C 4.078125 -5.859375 3 -5.101562 3 -3.59375 C 3 -2.863281 3.28125 -2.285156 3.84375 -1.859375 C 4.40625 -1.429688 5.1875 -1.21875 6.1875 -1.21875 Z M 6.1875 -1.21875 "></path></g></g><g style="fill:#f37021;fill-opacity:1;"><g transform="translate(506.952301, 200.879984)"><path style="stroke:none" d="M 9.03125 -0.765625 C 8.707031 -0.484375 8.304688 -0.265625 7.828125 -0.109375 C 7.359375 0.046875 6.867188 0.125 6.359375 0.125 C 5.171875 0.125 4.253906 -0.191406 3.609375 -0.828125 C 2.972656 -1.472656 2.65625 -2.378906 2.65625 -3.546875 L 2.65625 -11.1875 L 0.40625 -11.1875 L 0.40625 -12.625 L 2.65625 -12.625 L 2.65625 -15.390625 L 4.375 -15.390625 L 4.375 -12.625 L 8.203125 -12.625 L 8.203125 -11.1875 L 4.375 -11.1875 L 4.375 -3.640625 C 4.375 -2.890625 4.5625 -2.316406 4.9375 -1.921875 C 5.3125 -1.535156 5.847656 -1.34375 6.546875 -1.34375 C 6.898438 -1.34375 7.238281 -1.398438 7.5625 -1.515625 C 7.894531 -1.628906 8.179688 -1.785156 8.421875 -1.984375 Z M 9.03125 -0.765625 "></path></g></g><g style="fill:#f37021;fill-opacity:1;"><g transform="translate(517.368324, 200.879984)"><path style="stroke:none" d="M 2.375 -12.625 L 4.078125 -12.625 L 4.078125 0 L 2.375 0 Z M 3.234375 -15.390625 C 2.878906 -15.390625 2.582031 -15.507812 2.34375 -15.75 C 2.101562 -15.988281 1.984375 -16.273438 1.984375 -16.609375 C 1.984375 -16.929688 2.101562 -17.210938 2.34375 -17.453125 C 2.582031 -17.691406 2.878906 -17.8125 3.234375 -17.8125 C 3.585938 -17.8125 3.882812 -17.691406 4.125 -17.453125 C 4.363281 -17.222656 4.484375 -16.945312 4.484375 -16.625 C 4.484375 -16.28125 4.363281 -15.988281 4.125 -15.75 C 3.882812 -15.507812 3.585938 -15.390625 3.234375 -15.390625 Z M 3.234375 -15.390625 "></path></g></g><g style="fill:#f37021;fill-opacity:1;"><g transform="translate(524.496321, 200.879984)"><path style="stroke:none" d="M 7.53125 0.125 C 6.320312 0.125 5.226562 -0.148438 4.25 -0.703125 C 3.269531 -1.253906 2.5 -2.019531 1.9375 -3 C 1.382812 -3.976562 1.109375 -5.082031 1.109375 -6.3125 C 1.109375 -7.539062 1.382812 -8.644531 1.9375 -9.625 C 2.5 -10.601562 3.269531 -11.363281 4.25 -11.90625 C 5.226562 -12.445312 6.320312 -12.71875 7.53125 -12.71875 C 8.75 -12.71875 9.84375 -12.445312 10.8125 -11.90625 C 11.789062 -11.363281 12.554688 -10.601562 13.109375 -9.625 C 13.660156 -8.644531 13.9375 -7.539062 13.9375 -6.3125 C 13.9375 -5.082031 13.660156 -3.976562 13.109375 -3 C 12.554688 -2.019531 11.789062 -1.253906 10.8125 -0.703125 C 9.84375 -0.148438 8.75 0.125 7.53125 0.125 Z M 7.53125 -1.390625 C 8.425781 -1.390625 9.226562 -1.59375 9.9375 -2 C 10.65625 -2.40625 11.210938 -2.984375 11.609375 -3.734375 C 12.015625 -4.492188 12.21875 -5.351562 12.21875 -6.3125 C 12.21875 -7.269531 12.015625 -8.125 11.609375 -8.875 C 11.210938 -9.632812 10.65625 -10.21875 9.9375 -10.625 C 9.226562 -11.03125 8.425781 -11.234375 7.53125 -11.234375 C 6.632812 -11.234375 5.832031 -11.03125 5.125 -10.625 C 4.414062 -10.21875 3.851562 -9.632812 3.4375 -8.875 C 3.03125 -8.125 2.828125 -7.269531 2.828125 -6.3125 C 2.828125 -5.351562 3.03125 -4.492188 3.4375 -3.734375 C 3.851562 -2.984375 4.414062 -2.40625 5.125 -2 C 5.832031 -1.59375 6.632812 -1.390625 7.53125 -1.390625 Z M 7.53125 -1.390625 "></path></g></g><g style="fill:#f37021;fill-opacity:1;"><g transform="translate(540.216359, 200.879984)"><path style="stroke:none" d="M 8.8125 -12.71875 C 10.394531 -12.71875 11.648438 -12.253906 12.578125 -11.328125 C 13.515625 -10.410156 13.984375 -9.070312 13.984375 -7.3125 L 13.984375 0 L 12.28125 0 L 12.28125 -7.15625 C 12.28125 -8.46875 11.953125 -9.46875 11.296875 -10.15625 C 10.640625 -10.84375 9.707031 -11.1875 8.5 -11.1875 C 7.132812 -11.1875 6.054688 -10.78125 5.265625 -9.96875 C 4.472656 -9.164062 4.078125 -8.050781 4.078125 -6.625 L 4.078125 0 L 2.375 0 L 2.375 -12.625 L 4.015625 -12.625 L 4.015625 -10.296875 C 4.472656 -11.066406 5.113281 -11.660156 5.9375 -12.078125 C 6.757812 -12.503906 7.71875 -12.71875 8.8125 -12.71875 Z M 8.8125 -12.71875 "></path></g></g><g style="fill:#f37021;fill-opacity:1;"><g transform="translate(557.136379, 200.879984)"><path style="stroke:none" d="M 6.796875 -12.71875 C 8.441406 -12.71875 9.703125 -12.304688 10.578125 -11.484375 C 11.460938 -10.660156 11.90625 -9.441406 11.90625 -7.828125 L 11.90625 0 L 10.265625 0 L 10.265625 -1.96875 C 9.890625 -1.3125 9.328125 -0.796875 8.578125 -0.421875 C 7.835938 -0.0546875 6.953125 0.125 5.921875 0.125 C 4.515625 0.125 3.394531 -0.207031 2.5625 -0.875 C 1.726562 -1.550781 1.3125 -2.441406 1.3125 -3.546875 C 1.3125 -4.617188 1.695312 -5.484375 2.46875 -6.140625 C 3.25 -6.796875 4.488281 -7.125 6.1875 -7.125 L 10.203125 -7.125 L 10.203125 -7.890625 C 10.203125 -8.984375 9.894531 -9.8125 9.28125 -10.375 C 8.675781 -10.945312 7.789062 -11.234375 6.625 -11.234375 C 5.820312 -11.234375 5.050781 -11.097656 4.3125 -10.828125 C 3.582031 -10.566406 2.953125 -10.207031 2.421875 -9.75 L 1.65625 -11.015625 C 2.289062 -11.554688 3.054688 -11.972656 3.953125 -12.265625 C 4.847656 -12.566406 5.796875 -12.71875 6.796875 -12.71875 Z M 6.1875 -1.21875 C 7.144531 -1.21875 7.96875 -1.4375 8.65625 -1.875 C 9.351562 -2.320312 9.867188 -2.960938 10.203125 -3.796875 L 10.203125 -5.859375 L 6.234375 -5.859375 C 4.078125 -5.859375 3 -5.101562 3 -3.59375 C 3 -2.863281 3.28125 -2.285156 3.84375 -1.859375 C 4.40625 -1.429688 5.1875 -1.21875 6.1875 -1.21875 Z M 6.1875 -1.21875 "></path></g></g><g style="fill:#f37021;fill-opacity:1;"><g transform="translate(571.968424, 200.879984)"><path style="stroke:none" d="M 2.375 -17.8125 L 4.078125 -17.8125 L 4.078125 0 L 2.375 0 Z M 2.375 -17.8125 "></path></g></g><g style="fill:#f37021;fill-opacity:1;"><g transform="translate(579.096422, 200.879984)"><path style="stroke:none" d=""></path></g></g><g style="fill:#f37021;fill-opacity:1;"><g transform="translate(586.05642, 200.879984)"><path style="stroke:none" d="M 2.734375 -16.796875 L 9.578125 -16.796875 C 11.347656 -16.796875 12.910156 -16.4375 14.265625 -15.71875 C 15.628906 -15.007812 16.6875 -14.019531 17.4375 -12.75 C 18.195312 -11.476562 18.578125 -10.03125 18.578125 -8.40625 C 18.578125 -6.769531 18.195312 -5.316406 17.4375 -4.046875 C 16.6875 -2.773438 15.628906 -1.78125 14.265625 -1.0625 C 12.910156 -0.351562 11.347656 0 9.578125 0 L 2.734375 0 Z M 9.484375 -1.53125 C 10.953125 -1.53125 12.238281 -1.820312 13.34375 -2.40625 C 14.445312 -2.988281 15.300781 -3.796875 15.90625 -4.828125 C 16.519531 -5.867188 16.828125 -7.0625 16.828125 -8.40625 C 16.828125 -9.75 16.519531 -10.9375 15.90625 -11.96875 C 15.300781 -13 14.445312 -13.804688 13.34375 -14.390625 C 12.238281 -14.972656 10.953125 -15.265625 9.484375 -15.265625 L 4.515625 -15.265625 L 4.515625 -1.53125 Z M 9.484375 -1.53125 "></path></g></g><g style="fill:#f37021;fill-opacity:1;"><g transform="translate(606.552467, 200.879984)"><path style="stroke:none" d="M 2.375 -12.625 L 4.078125 -12.625 L 4.078125 0 L 2.375 0 Z M 3.234375 -15.390625 C 2.878906 -15.390625 2.582031 -15.507812 2.34375 -15.75 C 2.101562 -15.988281 1.984375 -16.273438 1.984375 -16.609375 C 1.984375 -16.929688 2.101562 -17.210938 2.34375 -17.453125 C 2.582031 -17.691406 2.878906 -17.8125 3.234375 -17.8125 C 3.585938 -17.8125 3.882812 -17.691406 4.125 -17.453125 C 4.363281 -17.222656 4.484375 -16.945312 4.484375 -16.625 C 4.484375 -16.28125 4.363281 -15.988281 4.125 -15.75 C 3.882812 -15.507812 3.585938 -15.390625 3.234375 -15.390625 Z M 3.234375 -15.390625 "></path></g></g><g style="fill:#f37021;fill-opacity:1;"><g transform="translate(613.680487, 200.879984)"><path style="stroke:none" d="M 8.8125 -12.71875 C 10.394531 -12.71875 11.648438 -12.253906 12.578125 -11.328125 C 13.515625 -10.410156 13.984375 -9.070312 13.984375 -7.3125 L 13.984375 0 L 12.28125 0 L 12.28125 -7.15625 C 12.28125 -8.46875 11.953125 -9.46875 11.296875 -10.15625 C 10.640625 -10.84375 9.707031 -11.1875 8.5 -11.1875 C 7.132812 -11.1875 6.054688 -10.78125 5.265625 -9.96875 C 4.472656 -9.164062 4.078125 -8.050781 4.078125 -6.625 L 4.078125 0 L 2.375 0 L 2.375 -12.625 L 4.015625 -12.625 L 4.015625 -10.296875 C 4.472656 -11.066406 5.113281 -11.660156 5.9375 -12.078125 C 6.757812 -12.503906 7.71875 -12.71875 8.8125 -12.71875 Z M 8.8125 -12.71875 "></path></g></g><g style="fill:#f37021;fill-opacity:1;"><g transform="translate(630.600507, 200.879984)"><path style="stroke:none" d="M 2.375 -12.625 L 4.078125 -12.625 L 4.078125 0 L 2.375 0 Z M 3.234375 -15.390625 C 2.878906 -15.390625 2.582031 -15.507812 2.34375 -15.75 C 2.101562 -15.988281 1.984375 -16.273438 1.984375 -16.609375 C 1.984375 -16.929688 2.101562 -17.210938 2.34375 -17.453125 C 2.582031 -17.691406 2.878906 -17.8125 3.234375 -17.8125 C 3.585938 -17.8125 3.882812 -17.691406 4.125 -17.453125 C 4.363281 -17.222656 4.484375 -16.945312 4.484375 -16.625 C 4.484375 -16.28125 4.363281 -15.988281 4.125 -15.75 C 3.882812 -15.507812 3.585938 -15.390625 3.234375 -15.390625 Z M 3.234375 -15.390625 "></path></g></g><g style="fill:#f37021;fill-opacity:1;"><g transform="translate(637.728505, 200.879984)"><path style="stroke:none" d="M 8.8125 -12.71875 C 10.394531 -12.71875 11.648438 -12.253906 12.578125 -11.328125 C 13.515625 -10.410156 13.984375 -9.070312 13.984375 -7.3125 L 13.984375 0 L 12.28125 0 L 12.28125 -7.15625 C 12.28125 -8.46875 11.953125 -9.46875 11.296875 -10.15625 C 10.640625 -10.84375 9.707031 -11.1875 8.5 -11.1875 C 7.132812 -11.1875 6.054688 -10.78125 5.265625 -9.96875 C 4.472656 -9.164062 4.078125 -8.050781 4.078125 -6.625 L 4.078125 0 L 2.375 0 L 2.375 -12.625 L 4.015625 -12.625 L 4.015625 -10.296875 C 4.472656 -11.066406 5.113281 -11.660156 5.9375 -12.078125 C 6.757812 -12.503906 7.71875 -12.71875 8.8125 -12.71875 Z M 8.8125 -12.71875 "></path></g></g><g style="fill:#f37021;fill-opacity:1;"><g transform="translate(654.648547, 200.879984)"><path style="stroke:none" d="M 14.0625 -12.625 L 14.0625 -1.53125 C 14.0625 0.613281 13.535156 2.203125 12.484375 3.234375 C 11.441406 4.265625 9.863281 4.78125 7.75 4.78125 C 6.582031 4.78125 5.472656 4.609375 4.421875 4.265625 C 3.378906 3.921875 2.53125 3.441406 1.875 2.828125 L 2.734375 1.53125 C 3.335938 2.082031 4.078125 2.507812 4.953125 2.8125 C 5.828125 3.113281 6.742188 3.265625 7.703125 3.265625 C 9.304688 3.265625 10.484375 2.890625 11.234375 2.140625 C 11.984375 1.398438 12.359375 0.25 12.359375 -1.3125 L 12.359375 -2.921875 C 11.828125 -2.128906 11.132812 -1.523438 10.28125 -1.109375 C 9.425781 -0.691406 8.476562 -0.484375 7.4375 -0.484375 C 6.25 -0.484375 5.171875 -0.742188 4.203125 -1.265625 C 3.242188 -1.785156 2.488281 -2.507812 1.9375 -3.4375 C 1.382812 -4.375 1.109375 -5.4375 1.109375 -6.625 C 1.109375 -7.8125 1.382812 -8.867188 1.9375 -9.796875 C 2.488281 -10.722656 3.242188 -11.441406 4.203125 -11.953125 C 5.160156 -12.460938 6.238281 -12.71875 7.4375 -12.71875 C 8.507812 -12.71875 9.476562 -12.5 10.34375 -12.0625 C 11.207031 -11.632812 11.90625 -11.015625 12.4375 -10.203125 L 12.4375 -12.625 Z M 7.609375 -1.984375 C 8.515625 -1.984375 9.335938 -2.179688 10.078125 -2.578125 C 10.816406 -2.972656 11.390625 -3.519531 11.796875 -4.21875 C 12.203125 -4.925781 12.40625 -5.726562 12.40625 -6.625 C 12.40625 -7.519531 12.203125 -8.316406 11.796875 -9.015625 C 11.390625 -9.710938 10.820312 -10.253906 10.09375 -10.640625 C 9.363281 -11.035156 8.535156 -11.234375 7.609375 -11.234375 C 6.691406 -11.234375 5.867188 -11.039062 5.140625 -10.65625 C 4.421875 -10.269531 3.851562 -9.722656 3.4375 -9.015625 C 3.03125 -8.316406 2.828125 -7.519531 2.828125 -6.625 C 2.828125 -5.726562 3.03125 -4.925781 3.4375 -4.21875 C 3.851562 -3.519531 4.421875 -2.972656 5.140625 -2.578125 C 5.867188 -2.179688 6.691406 -1.984375 7.609375 -1.984375 Z M 7.609375 -1.984375 "></path></g></g></g></svg>